<?xml version="1.0" encoding="utf-8"?>
<!-- Generator: Adobe Illustrator 16.0.0, SVG Export Plug-In . SVG Version: 6.00 Build 0)  -->
<!DOCTYPE svg PUBLIC "-//W3C//DTD SVG 1.1//EN" "http://www.w3.org/Graphics/SVG/1.1/DTD/svg11.dtd">
<svg version="1.1" id="Layer_1" xmlns="http://www.w3.org/2000/svg" xmlns:xlink="http://www.w3.org/1999/xlink" x="0px" y="0px"
	 width="356.598px" height="45.386px" viewBox="0 0 356.598 45.386" enable-background="new 0 0 356.598 45.386"
	 xml:space="preserve">
<g>
	<path fill="#FFFFFF" d="M89.744,25.898c-1.44,0.116-3.426,0.342-4.308,0.342c-5.568,0-8.667-2.819-7.404-7.883
		c1.255-5.028,5.76-7.854,11.325-7.854c1.362,0,2.748,0.181,4.055,0.412l-0.504,3.529c-1.135-0.347-2.293-0.612-3.556-0.612
		c-3.799,0-5.895,2.521-6.393,4.554c-0.588,2.342,0.298,4.531,3.299,4.531c1.929,0,3.388-0.294,4.808-0.614L89.744,25.898z
		 M93.814,18.357c1.249-5.028,5.757-7.854,11.326-7.854c5.562,0,8.656,2.826,7.402,7.854c-1.258,5.064-5.766,7.883-11.329,7.883
		C95.649,26.24,92.557,23.421,93.814,18.357 M98.736,18.386c-0.584,2.342,0.325,4.531,3.303,4.531c2.982,0,4.99-2.189,5.573-4.531
		c0.583-2.35-0.324-4.554-3.305-4.554C101.329,13.832,99.318,16.036,98.736,18.386 M116.91,10.777h4.926l-2.966,11.934h7.216
		l-0.803,3.255H113.12L116.91,10.777z M144.517,17.084l-2.131,8.569c-2.124,0.245-4.68,0.587-7.638,0.587
		c-4.906,0-8.005-2.819-6.741-7.883c1.252-5.028,5.762-7.854,11.319-7.854c2.115,0,3.961,0.226,5.749,0.588l-0.569,3.583
		c-1.46-0.528-3.07-0.842-4.768-0.842c-3.424,0-6.122,1.798-6.914,4.986c-0.705,2.83,0.725,4.231,3.304,4.231
		c0.73,0,1.554-0.109,2.287-0.411l0.588-2.366h-2.036l0.792-3.188H144.517z M144.517,25.966c3.906-4.944,7.588-10.086,11.299-15.189
		h5.915c0.702,4.991,1.784,10.155,2.739,15.189h-5.239l-0.598-4.376h-5.773l-2.943,4.376H144.517z M158.492,18.405l-0.609-4.346
		h-0.049l-3.007,4.346H158.492z M166.737,10.777h14.668l-0.812,3.257h-4.857l-2.973,11.932h-4.93l2.971-11.932h-4.88L166.737,10.777
		z M193.384,16.692l-0.813,3.262h-6.543l-0.684,2.757h7.783l-0.806,3.255h-12.726l3.79-15.189h12.726l-0.818,3.257h-7.786
		l-0.676,2.658H193.384z M198.123,15.954h6.286l-0.774,3.098h-6.287L198.123,15.954z M209.829,10.777h8.732
		c1.127,0,4.156,0.751,3.201,4.578c-0.744,2.983-3.506,4.917-6.697,4.917c-0.515,0-3.047-0.21-3.558-0.251l-0.165-2.986
		c0.324,0.02,2.635,0.256,2.969,0.256c1.264,0,2.423-0.501,2.707-1.661c0.381-1.533-0.494-1.666-1.583-1.666h-1.683l-2.998,12.002
		h-4.715L209.829,10.777z M218.486,25.966c3.912-4.944,7.586-10.086,11.302-15.189h5.921c0.695,4.991,1.775,10.155,2.73,15.189
		h-5.233l-0.602-4.376h-5.771l-2.946,4.376H218.486z M232.467,18.405l-0.607-4.346h-0.048l-3.008,4.346H232.467z M243.925,10.777
		h4.928l-2.971,11.934h7.229l-0.813,3.255h-12.164L243.925,10.777z M265.105,10.777l0.296,9.544h0.047l5.188-9.544h6.461
		l-3.783,15.189h-4.086l2.716-10.89h-0.051l-5.951,10.89h-4.206l-0.436-10.861h-0.044l-2.705,10.861h-3.761l3.79-15.189H265.105z
		 M278.552,18.357c1.253-5.028,5.759-7.854,11.319-7.854c5.564,0,8.664,2.826,7.405,7.854c-1.253,5.064-5.763,7.883-11.326,7.883
		C280.386,26.24,277.289,23.421,278.552,18.357 M283.474,18.386c-0.591,2.342,0.328,4.531,3.305,4.531
		c2.985,0,4.977-2.189,5.562-4.531c0.588-2.35-0.313-4.554-3.301-4.554C286.061,13.832,284.056,16.036,283.474,18.386
		 M301.642,10.777h4.93l-2.979,11.934h7.236l-0.81,3.255h-12.166L301.642,10.777z M316.235,10.777h4.929l-3.786,15.189h-4.932
		L316.235,10.777z M325.433,25.966c-0.062-1.346-1.643-10.634-2.358-15.189h5.067l1.257,11.36l7.456-11.36h5.109
		c-2.34,3.097-8.651,12.027-10.895,15.189H325.433z M353.878,16.692l-0.812,3.262h-6.552l-0.686,2.757h7.791l-0.812,3.255h-12.72
		l3.787-15.189h12.723l-0.813,3.257h-7.792l-0.668,2.658H353.878z"/>
	<g display="none">
		<path display="inline" fill="#FFFFFF" d="M374.66,25.369c-1.293,0.251-2.704,0.451-4.214,0.451c-4.749,0-7.798-2.457-6.356-7.848
			c1.264-4.73,5.35-7.889,10.57-7.889c1.399,0,2.654,0.167,3.983,0.421l-0.284,1.752c-1.296-0.361-2.503-0.635-4.107-0.635
			c-3.893,0-6.938,2.448-7.986,6.351c-0.859,3.24-0.014,6.325,4.595,6.325c1.61,0,3.1-0.273,4.482-0.69L374.66,25.369z"/>
		<path display="inline" fill="#FFFFFF" d="M395.91,18.112c-1.449,5.387-5.827,7.853-10.566,7.853c-4.755,0-7.806-2.466-6.362-7.853
			c1.27-4.73,5.344-7.883,10.569-7.883C394.775,10.229,397.174,13.382,395.91,18.112 M381.156,18.112
			c-0.866,3.236-0.019,6.328,4.592,6.328c4.609,0,7.118-3.092,7.981-6.328c1.046-3.907-0.689-6.355-4.586-6.355
			C385.234,11.757,382.204,14.205,381.156,18.112"/>
		<polygon display="inline" fill="#FFFFFF" points="397.75,25.575 395.98,25.575 400.058,10.337 403.362,10.337 404.695,23.219 
			413.125,10.337 416.221,10.337 412.146,25.575 410.137,25.575 413.614,12.569 413.555,12.569 405.056,25.575 402.902,25.575 
			401.365,12.324 401.295,12.324 		"/>
		<path display="inline" fill="#FFFFFF" d="M435.372,10.337h2.669l2.329,15.239h-2.341l-0.833-6.425h-6.239l-4.652,6.425h-2.406
			L435.372,10.337z M436.942,17.74l-0.91-5.895l-4.293,5.895H436.942z"/>
		<polygon display="inline" fill="#FFFFFF" points="445.715,10.337 448.438,10.337 454.306,23.22 454.335,23.269 457.801,10.337 
			459.808,10.337 455.727,25.575 452.955,25.575 447.103,12.854 447.068,12.805 443.645,25.575 441.644,25.575 		"/>
		<polygon display="inline" fill="#FFFFFF" points="463.802,18.788 460.757,10.336 463.167,10.336 465.431,17.236 471.535,10.336 
			473.937,10.336 465.92,19.043 464.168,25.576 461.999,25.576 		"/>
		<path display="inline" fill="#FFFFFF" d="M419.277,10.43h6.503c2.3,0,3.436,1.572,2.864,3.845
			c-0.722,2.923-3.522,4.533-6.51,4.533c-0.604,0-2.606-0.108-3.209-0.158l-0.09-1.409c0.573,0.044,2.526,0.157,3.117,0.157
			c2.093,0,4.002-0.96,4.502-2.983c0.421-1.689-0.303-2.457-1.852-2.457h-3.64l-3.407,13.661h-2.065L419.277,10.43z"/>
	</g>
	<path fill="#FFFFFF" d="M0.002,17c0,0,0.46-16.769,19.624-17h14.373l-3.228,14.211l-11.849,0.038
		c-3.951,0.025-4.71,3.275-4.71,3.275s-0.226,3.419,3.564,3.804l11.386,0.006l-3.277,14.435l-6.64,0.029
		C-0.615,35.392,0.002,17,0.002,17 M63.588,17c0,0-0.841-16.769-20.006-17h-6.113l-3.187,14.211l10.004,0.038
		c3.951,0.025,4.705,3.275,4.705,3.275s0.23,3.419-3.561,3.804l-12.778,0.006l-5.519,24.012l13.509,0.04l2.244-9.588h1.081
		C63.824,35.392,63.588,17,63.588,17"/>
</g>
</svg>
